<?xml version="1.0" standalone="no"?>
<!DOCTYPE svg PUBLIC "-//W3C//DTD SVG 20010904//EN"
 "http://www.w3.org/TR/2001/REC-SVG-20010904/DTD/svg10.dtd">
<svg version="1.0" xmlns="http://www.w3.org/2000/svg"
 width="256.000000pt" height="256.000000pt" viewBox="0 0 256.000000 256.000000"
 preserveAspectRatio="xMidYMid meet">
<metadata>
Created by potrace 1.11, written by Peter Selinger 2001-2013
</metadata>
<g transform="translate(0.000000,256.000000) scale(0.100000,-0.100000)"
fill="#000000" stroke="none">
<path d="M1059 2544 c-372 -67 -690 -289 -887 -618 -171 -286 -220 -670 -126
-994 139 -480 530 -832 1018 -917 114 -19 318 -19 432 0 506 88 905 461 1032
964 25 97 27 122 27 301 0 178 -3 204 -27 300 -63 251 -190 467 -371 635 -184
172 -414 287 -661 330 -109 19 -332 18 -437 -1z m286 -414 c102 -39 137 -198
59 -271 -26 -25 -26 -29 3 -227 11 -72 21 -112 28 -110 7 2 52 48 100 103 49
55 98 110 111 123 20 21 21 25 8 50 -23 44 -27 90 -14 138 45 158 276 158 320
0 22 -78 -18 -174 -82 -199 -10 -3 -18 -16 -18 -27 0 -12 -9 -49 -20 -83 -10
-34 -28 -93 -39 -132 -18 -63 -57 -199 -82 -281 -5 -17 -9 -126 -9 -242 l0
-212 -430 0 -430 0 0 211 c0 159 -4 223 -15 258 -8 25 -24 80 -35 121 -73 262
-114 390 -123 390 -21 0 -68 62 -78 103 -35 127 74 237 204 206 106 -25 157
-147 103 -250 -16 -31 -18 -28 101 -156 48 -52 92 -101 96 -109 21 -36 34 -11
50 99 29 197 29 201 3 226 -36 34 -52 103 -37 158 12 47 53 97 93 112 31 13
101 13 133 1z m535 -1630 l0 -80 -600 0 -600 0 0 80 0 80 600 0 600 0 0 -80z"/>
</g>
</svg>
